3.0Hz3min_grf.mot
version=1
nRows=22
nColumns 19
inDegrees=yes
endheader
time	1_ground_force_vx	1_ground_force_vy	1_ground_force_vz	1_ground_force_px	1_ground_force_py	1_ground_force_pz	1_ground_torque_x	1_ground_torque_y	1_ground_torque_z	2_ground_force_vx	2_ground_force_vy	2_ground_force_vz	2_ground_force_px	2_ground_force_py	2_ground_force_pz	2_ground_torque_x	2_ground_torque_y	2_ground_torque_z
            3.751500	            4.188212	          275.208539	          -27.353532	           -0.196745	            0.005805	           -0.306267	           -0.007399	           -0.486176	            0.048322	            7.228345	          219.816013	           24.902166	           -0.217341	            0.005569	           -0.661255	           -0.032357	           -0.983975	           -0.111471
            3.752000	            4.144492	          271.060091	          -26.820925	           -0.196670	            0.005805	           -0.306269	           -0.007053	           -0.461305	            0.045645	            7.335920	          215.949883	           24.700616	           -0.217781	            0.005567	           -0.661038	           -0.032560	           -0.958491	           -0.109633
            3.752500	            4.191939	          266.011481	          -26.567546	           -0.196968	            0.005806	           -0.306491	           -0.007512	           -0.476715	            0.047611	            7.349315	          212.266079	           24.922115	           -0.217836	            0.005566	           -0.660890	           -0.035447	           -1.023794	           -0.120203
            3.753000	            4.193640	          261.683532	          -26.219250	           -0.196872	            0.005805	           -0.306348	           -0.007627	           -0.475903	            0.047683	            7.128961	          208.398629	           24.767632	           -0.217546	            0.005569	           -0.661353	           -0.030434	           -0.889680	           -0.105736
            3.753500	            4.287628	          257.174322	          -25.642675	           -0.197157	            0.005807	           -0.306780	           -0.007337	           -0.440066	            0.043879	            7.468770	          205.085995	           24.521025	           -0.217680	            0.005568	           -0.661231	           -0.031982	           -0.878198	           -0.105001
            3.754000	            4.243321	          253.747692	          -25.290400	           -0.197192	            0.005804	           -0.306008	           -0.007218	           -0.431609	            0.043017	            7.483954	          200.851413	           24.271272	           -0.217916	            0.005565	           -0.660597	           -0.033604	           -0.901840	           -0.108980
            3.754500	            4.336533	          247.257556	          -25.180887	           -0.196467	            0.005808	           -0.306868	           -0.007668	           -0.437236	            0.044528	            7.494547	          197.905374	           24.166903	           -0.218119	            0.005567	           -0.661520	           -0.031591	           -0.834209	           -0.101868
            3.755000	            4.430684	          243.108514	          -24.511054	           -0.197251	            0.005806	           -0.306463	           -0.006247	           -0.342768	            0.034559	            7.788191	          194.408233	           23.966587	           -0.217951	            0.005567	           -0.661429	           -0.033823	           -0.844297	           -0.104085
            3.755500	            4.431863	          239.141883	          -24.344635	           -0.197368	            0.005806	           -0.306498	           -0.006515	           -0.351546	            0.035787	            7.803998	          189.989845	           23.622321	           -0.218005	            0.005566	           -0.661087	           -0.035043	           -0.853129	           -0.106074
            3.756000	            4.433435	          234.273530	          -24.090370	           -0.197440	            0.005807	           -0.306716	           -0.007114	           -0.375904	            0.038654	            7.579156	          187.410101	           23.847862	           -0.218135	            0.005568	           -0.661804	           -0.032232	           -0.797011	           -0.101419
            3.756500	            4.069368	          229.583406	          -23.375862	           -0.197608	            0.005806	           -0.306651	           -0.007121	           -0.401769	            0.040908	            7.637887	          184.096254	           23.648303	           -0.218105	            0.005568	           -0.661664	           -0.031570	           -0.760928	           -0.097746
            3.757000	            4.071099	          226.336658	          -22.931216	           -0.197769	            0.005806	           -0.306475	           -0.007542	           -0.419305	            0.042482	            7.610852	          178.572655	           23.347042	           -0.218524	            0.005561	           -0.660338	           -0.031115	           -0.730057	           -0.095449
            3.757500	            4.210658	          220.206079	          -22.590991	           -0.197170	            0.005808	           -0.306896	           -0.007339	           -0.383827	            0.039377	            7.806831	          176.179883	           23.197636	           -0.218696	            0.005563	           -0.660892	           -0.036352	           -0.820367	           -0.108018
            3.758000	            4.395421	          215.698489	          -22.381491	           -0.197059	            0.005807	           -0.306712	           -0.006964	           -0.341733	            0.035459	            7.538962	          172.496403	           23.043831	           -0.218382	            0.005561	           -0.660216	           -0.030444	           -0.696581	           -0.093056
            3.758500	            4.076155	          211.731010	          -22.030852	           -0.197671	            0.005807	           -0.306710	           -0.005838	           -0.303249	            0.031553	            7.829263	          169.920194	           22.799872	           -0.218465	            0.005567	           -0.661920	           -0.034350	           -0.745501	           -0.100031
            3.759000	            4.261357	          207.943500	          -21.588980	           -0.197541	            0.005806	           -0.306657	           -0.006699	           -0.326888	            0.033938	            7.703253	          165.869077	           22.597764	           -0.218689	            0.005560	           -0.660217	           -0.034506	           -0.742999	           -0.101225
            3.759500	            4.263255	          202.533957	          -21.245322	           -0.197513	            0.005807	           -0.306750	           -0.006610	           -0.314037	            0.032942	            7.618796	          163.291180	           22.447820	           -0.218842	            0.005564	           -0.661496	           -0.033223	           -0.712049	           -0.097886
            3.760000	            3.851961	          198.567049	          -21.032023	           -0.197123	            0.005808	           -0.307076	           -0.007564	           -0.389918	            0.041300	            7.632691	          159.424575	           22.293238	           -0.219262	            0.005559	           -0.660371	           -0.031441	           -0.656701	           -0.091830
            3.760500	            4.037375	          194.238546	          -20.546615	           -0.197406	            0.005806	           -0.306571	           -0.006869	           -0.330458	            0.034956	            7.874149	          157.400618	           22.051270	           -0.219548	            0.005562	           -0.661621	           -0.034342	           -0.686473	           -0.096172
            3.761000	            3.992744	          190.091640	          -20.380855	           -0.197899	            0.005806	           -0.306658	           -0.006043	           -0.287693	            0.030845	            7.563521	          152.611228	           22.128182	           -0.218393	            0.005562	           -0.660405	           -0.033699	           -0.679949	           -0.098591
            3.761500	            3.810600	          186.485308	          -20.166580	           -0.197646	            0.005807	           -0.306692	           -0.005257	           -0.257255	            0.027820	            7.525208	          150.217975	           21.885020	           -0.219556	            0.005561	           -0.661394	           -0.033715	           -0.673027	           -0.098052
            3.762000	            3.629057	          182.697727	          -19.723798	           -0.198159	            0.005807	           -0.306722	           -0.004212	           -0.212024	            0.022890	            7.770550	          147.089980	           21.404469	           -0.218737	            0.005561	           -0.660309	           -0.037574	           -0.711236	           -0.103499
